<svg width="100%" viewBox="0 0 680 780" role="img" xmlns="http://www.w3.org/2000/svg">
  <title>Traditional AI vs Agentic AI vs Agentic RAG</title>
  <desc>A left-to-right timeline diagram comparing three AI paradigms: Traditional AI (static pipeline), Agentic AI (autonomous reasoning loop), and Agentic RAG (retrieval plus reasoning loop).</desc>
  <defs>
    <marker id="arrow" viewBox="0 0 10 10" refX="8" refY="5" markerWidth="6" markerHeight="6" orient="auto-start-reverse">
      <path d="M2 1L8 5L2 9" fill="none" stroke="context-stroke" stroke-width="1.5" stroke-linecap="round" stroke-linejoin="round"/>
    </marker>
  </defs>

  <!-- ─── SECTION LABELS (left rail) ─── -->
  <rect x="6" y="28" width="6" height="220" rx="3" fill="#534AB7"/>
  <text font-family="-apple-system, sans-serif" font-size="13" font-weight="700" fill="#534AB7" x="32" y="138" transform="rotate(-90,32,138)" text-anchor="middle" letter-spacing="1.5">TRADITIONAL AI</text>

  <rect x="6" y="276" width="6" height="240" rx="3" fill="#0F6E56"/>
  <text font-family="-apple-system, sans-serif" font-size="13" font-weight="700" fill="#0F6E56" x="32" y="396" transform="rotate(-90,32,396)" text-anchor="middle" letter-spacing="1.5">AGENTIC AI</text>

  <rect x="6" y="544" width="6" height="220" rx="3" fill="#185FA5"/>
  <text font-family="-apple-system, sans-serif" font-size="13" font-weight="700" fill="#185FA5" x="32" y="654" transform="rotate(-90,32,654)" text-anchor="middle" letter-spacing="1.5">AGENTIC RAG</text>

  <!-- ═══ SECTION 1 — TRADITIONAL AI ═══ -->
  <rect x="46" y="28" width="622" height="220" rx="12" fill="#F4F3FC" stroke="#AFA9EC" stroke-width="0.8"/>

  <rect x="58" y="68" width="110" height="40" rx="8" fill="#534AB7" stroke="#3C3489" stroke-width="0.5"/>
  <text font-family="-apple-system, sans-serif" font-size="12" font-weight="500" fill="#EEEDFE" x="113" y="92" text-anchor="middle" dominant-baseline="central">Specify task</text>
  <line x1="168" y1="88" x2="186" y2="88" stroke="#534AB7" stroke-width="1.2" marker-end="url(#arrow)" fill="none"/>

  <rect x="188" y="68" width="110" height="40" rx="8" fill="#534AB7" stroke="#3C3489" stroke-width="0.5"/>
  <text font-family="-apple-system, sans-serif" font-size="12" font-weight="500" fill="#EEEDFE" x="243" y="92" text-anchor="middle" dominant-baseline="central">Collect data</text>
  <line x1="298" y1="88" x2="316" y2="88" stroke="#534AB7" stroke-width="1.2" marker-end="url(#arrow)" fill="none"/>

  <rect x="318" y="68" width="110" height="40" rx="8" fill="#534AB7" stroke="#3C3489" stroke-width="0.5"/>
  <text font-family="-apple-system, sans-serif" font-size="12" font-weight="500" fill="#EEEDFE" x="373" y="92" text-anchor="middle" dominant-baseline="central">Refine data</text>
  <line x1="428" y1="88" x2="446" y2="88" stroke="#534AB7" stroke-width="1.2" marker-end="url(#arrow)" fill="none"/>

  <rect x="448" y="68" width="110" height="40" rx="8" fill="#534AB7" stroke="#3C3489" stroke-width="0.5"/>
  <text font-family="-apple-system, sans-serif" font-size="12" font-weight="500" fill="#EEEDFE" x="503" y="92" text-anchor="middle" dominant-baseline="central">Model training</text>
  <line x1="558" y1="88" x2="576" y2="88" stroke="#534AB7" stroke-width="1.2" marker-end="url(#arrow)" fill="none"/>

  <rect x="578" y="68" width="82" height="40" rx="8" fill="#26215C" stroke="#26215C" stroke-width="0.5"/>
  <text font-family="-apple-system, sans-serif" font-size="12" font-weight="500" fill="#EEEDFE" x="619" y="92" text-anchor="middle" dominant-baseline="central">Deploy</text>

  <rect x="318" y="36" width="110" height="28" rx="14" fill="#CECBF6" stroke="#534AB7" stroke-width="0.5"/>
  <text font-family="-apple-system, sans-serif" font-size="11" font-weight="500" fill="#26215C" x="373" y="50" text-anchor="middle" dominant-baseline="central">Vector DB</text>
  <line x1="373" y1="68" x2="373" y2="64" stroke="#534AB7" stroke-width="0.8" fill="none"/>

  <rect x="318" y="130" width="110" height="40" rx="8" fill="#7F77DD" stroke="#534AB7" stroke-width="0.5"/>
  <text font-family="-apple-system, sans-serif" font-size="12" font-weight="500" fill="#EEEDFE" x="373" y="154" text-anchor="middle" dominant-baseline="central">Retrieval index</text>
  <line x1="373" y1="108" x2="373" y2="130" stroke="#534AB7" stroke-width="0.8" fill="none" marker-end="url(#arrow)"/>
  <line x1="428" y1="150" x2="446" y2="150" stroke="#7F77DD" stroke-width="1.2" marker-end="url(#arrow)" fill="none"/>

  <rect x="448" y="130" width="110" height="40" rx="8" fill="#7F77DD" stroke="#534AB7" stroke-width="0.5"/>
  <text font-family="-apple-system, sans-serif" font-size="12" font-weight="500" fill="#EEEDFE" x="503" y="154" text-anchor="middle" dominant-baseline="central">Evaluate</text>
  <line x1="558" y1="150" x2="576" y2="150" stroke="#7F77DD" stroke-width="1.2" marker-end="url(#arrow)" fill="none"/>

  <rect x="578" y="130" width="82" height="40" rx="8" fill="#26215C" stroke="#26215C" stroke-width="0.5"/>
  <text font-family="-apple-system, sans-serif" font-size="12" font-weight="500" fill="#EEEDFE" x="619" y="154" text-anchor="middle" dominant-baseline="central">Results</text>
  <path d="M619 108 L619 130" stroke="#534AB7" stroke-width="0.8" fill="none" marker-end="url(#arrow)"/>

  <text font-family="-apple-system, sans-serif" font-size="11" fill="#534AB7" x="62" y="210">Static pipeline. Train once, deploy once.</text>
  <text font-family="-apple-system, sans-serif" font-size="11" fill="#534AB7" x="62" y="226">When data changes — retrain from scratch.</text>

  <!-- ═══ SECTION 2 — AGENTIC AI ═══ -->
  <rect x="46" y="276" width="622" height="240" rx="12" fill="#EAF7F1" stroke="#5DCAA5" stroke-width="0.8"/>

  <rect x="58" y="310" width="110" height="40" rx="8" fill="#0F6E56" stroke="#085041" stroke-width="0.5"/>
  <text font-family="-apple-system, sans-serif" font-size="12" font-weight="500" fill="#E1F5EE" x="113" y="334" text-anchor="middle" dominant-baseline="central">Specify task</text>
  <line x1="168" y1="330" x2="186" y2="330" stroke="#0F6E56" stroke-width="1.2" marker-end="url(#arrow)" fill="none"/>

  <rect x="188" y="310" width="110" height="40" rx="8" fill="#0F6E56" stroke="#085041" stroke-width="0.5"/>
  <text font-family="-apple-system, sans-serif" font-size="12" font-weight="500" fill="#E1F5EE" x="243" y="334" text-anchor="middle" dominant-baseline="central">Choose LLM</text>
  <line x1="298" y1="330" x2="316" y2="330" stroke="#0F6E56" stroke-width="1.2" marker-end="url(#arrow)" fill="none"/>

  <rect x="318" y="310" width="110" height="40" rx="8" fill="#0F6E56" stroke="#085041" stroke-width="0.5"/>
  <text font-family="-apple-system, sans-serif" font-size="12" font-weight="500" fill="#E1F5EE" x="373" y="334" text-anchor="middle" dominant-baseline="central">Tools &amp; APIs</text>
  <line x1="428" y1="330" x2="446" y2="330" stroke="#0F6E56" stroke-width="1.2" marker-end="url(#arrow)" fill="none"/>

  <rect x="448" y="310" width="110" height="40" rx="8" fill="#0F6E56" stroke="#085041" stroke-width="0.5"/>
  <text font-family="-apple-system, sans-serif" font-size="12" font-weight="500" fill="#E1F5EE" x="503" y="334" text-anchor="middle" dominant-baseline="central">External ops</text>
  <line x1="558" y1="330" x2="576" y2="330" stroke="#0F6E56" stroke-width="1.2" marker-end="url(#arrow)" fill="none"/>

  <rect x="578" y="310" width="82" height="40" rx="8" fill="#085041" stroke="#04342C" stroke-width="0.5"/>
  <text font-family="-apple-system, sans-serif" font-size="12" font-weight="500" fill="#E1F5EE" x="619" y="334" text-anchor="middle" dominant-baseline="central">Reason</text>

  <rect x="318" y="376" width="110" height="40" rx="8" fill="#1D9E75" stroke="#0F6E56" stroke-width="0.5"/>
  <text font-family="-apple-system, sans-serif" font-size="12" font-weight="500" fill="#E1F5EE" x="373" y="400" text-anchor="middle" dominant-baseline="central">Search / APIs</text>
  <line x1="373" y1="350" x2="373" y2="376" stroke="#0F6E56" stroke-width="0.8" fill="none" marker-end="url(#arrow)"/>

  <rect x="448" y="376" width="110" height="40" rx="8" fill="#1D9E75" stroke="#0F6E56" stroke-width="0.5"/>
  <text font-family="-apple-system, sans-serif" font-size="12" font-weight="500" fill="#E1F5EE" x="503" y="392" text-anchor="middle" dominant-baseline="central">Embed logic</text>
  <text font-family="-apple-system, sans-serif" font-size="11" fill="#9FE1CB" x="503" y="408" text-anchor="middle" dominant-baseline="central">&amp; iterate</text>
  <line x1="428" y1="396" x2="446" y2="396" stroke="#1D9E75" stroke-width="1.2" marker-end="url(#arrow)" fill="none"/>

  <rect x="578" y="376" width="82" height="40" rx="8" fill="#085041" stroke="#04342C" stroke-width="0.5"/>
  <text font-family="-apple-system, sans-serif" font-size="12" font-weight="500" fill="#E1F5EE" x="619" y="396" text-anchor="middle" dominant-baseline="central">Act &amp; evolve</text>
  <line x1="558" y1="396" x2="576" y2="396" stroke="#1D9E75" stroke-width="1.2" marker-end="url(#arrow)" fill="none"/>
  <path d="M619 350 L619 396" stroke="#0F6E56" stroke-width="0.8" fill="none" marker-end="url(#arrow)"/>
  <path d="M660 396 Q670 396 670 430 Q670 460 619 460 Q503 460 503 416" stroke="#1D9E75" stroke-width="1.2" stroke-dasharray="4 3" fill="none" marker-end="url(#arrow)"/>
  <text font-family="-apple-system, sans-serif" font-size="10" fill="#0F6E56" x="585" y="476" text-anchor="middle">self-improve</text>

  <text font-family="-apple-system, sans-serif" font-size="11" fill="#0F6E56" x="62" y="460">Autonomous reasoning. Acts, evaluates, improves — no retraining needed.</text>

  <!-- ═══ SECTION 3 — AGENTIC RAG ═══ -->
  <rect x="46" y="544" width="622" height="220" rx="12" fill="#EBF3FC" stroke="#85B7EB" stroke-width="0.8"/>

  <rect x="58" y="578" width="110" height="40" rx="8" fill="#185FA5" stroke="#0C447C" stroke-width="0.5"/>
  <text font-family="-apple-system, sans-serif" font-size="12" font-weight="500" fill="#E6F1FB" x="113" y="602" text-anchor="middle" dominant-baseline="central">Specify task</text>
  <line x1="168" y1="598" x2="186" y2="598" stroke="#185FA5" stroke-width="1.2" marker-end="url(#arrow)" fill="none"/>

  <rect x="188" y="578" width="110" height="40" rx="8" fill="#185FA5" stroke="#0C447C" stroke-width="0.5"/>
  <text font-family="-apple-system, sans-serif" font-size="12" font-weight="500" fill="#E6F1FB" x="243" y="602" text-anchor="middle" dominant-baseline="central">Fetch data</text>
  <line x1="298" y1="598" x2="316" y2="598" stroke="#185FA5" stroke-width="1.2" marker-end="url(#arrow)" fill="none"/>

  <rect x="318" y="578" width="110" height="40" rx="8" fill="#185FA5" stroke="#0C447C" stroke-width="0.5"/>
  <text font-family="-apple-system, sans-serif" font-size="12" font-weight="500" fill="#E6F1FB" x="373" y="602" text-anchor="middle" dominant-baseline="central">Multi-step plan</text>
  <line x1="428" y1="598" x2="446" y2="598" stroke="#185FA5" stroke-width="1.2" marker-end="url(#arrow)" fill="none"/>

  <rect x="448" y="578" width="110" height="40" rx="8" fill="#185FA5" stroke="#0C447C" stroke-width="0.5"/>
  <text font-family="-apple-system, sans-serif" font-size="12" font-weight="500" fill="#E6F1FB" x="503" y="602" text-anchor="middle" dominant-baseline="central">Iterative logic</text>
  <line x1="558" y1="598" x2="576" y2="598" stroke="#185FA5" stroke-width="1.2" marker-end="url(#arrow)" fill="none"/>

  <rect x="578" y="578" width="82" height="40" rx="8" fill="#0C447C" stroke="#042C53" stroke-width="0.5"/>
  <text font-family="-apple-system, sans-serif" font-size="12" font-weight="500" fill="#E6F1FB" x="619" y="602" text-anchor="middle" dominant-baseline="central">Actions</text>

  <rect x="188" y="636" width="110" height="28" rx="14" fill="#B5D4F4" stroke="#185FA5" stroke-width="0.5"/>
  <text font-family="-apple-system, sans-serif" font-size="11" font-weight="500" fill="#0C447C" x="243" y="650" text-anchor="middle" dominant-baseline="central">Search / APIs</text>
  <line x1="243" y1="618" x2="243" y2="636" stroke="#185FA5" stroke-width="0.8" fill="none"/>

  <rect x="448" y="636" width="110" height="40" rx="8" fill="#378ADD" stroke="#185FA5" stroke-width="0.5"/>
  <text font-family="-apple-system, sans-serif" font-size="12" font-weight="500" fill="#E6F1FB" x="503" y="660" text-anchor="middle" dominant-baseline="central">Verify results</text>
  <line x1="503" y1="618" x2="503" y2="636" stroke="#185FA5" stroke-width="0.8" fill="none" marker-end="url(#arrow)"/>

  <rect x="578" y="636" width="82" height="40" rx="8" fill="#0C447C" stroke="#042C53" stroke-width="0.5"/>
  <text font-family="-apple-system, sans-serif" font-size="12" font-weight="500" fill="#E6F1FB" x="619" y="660" text-anchor="middle" dominant-baseline="central">Refresh mem</text>
  <line x1="558" y1="656" x2="576" y2="656" stroke="#378ADD" stroke-width="1.2" marker-end="url(#arrow)" fill="none"/>
  <line x1="619" y1="618" x2="619" y2="636" stroke="#185FA5" stroke-width="0.8" fill="none" marker-end="url(#arrow)"/>
  <path d="M660 656 Q672 656 672 700 Q672 724 619 724 Q503 724 503 676" stroke="#378ADD" stroke-width="1.2" stroke-dasharray="4 3" fill="none" marker-end="url(#arrow)"/>
  <text font-family="-apple-system, sans-serif" font-size="10" fill="#185FA5" x="585" y="702" text-anchor="middle">adapt</text>

  <text font-family="-apple-system, sans-serif" font-size="11" fill="#185FA5" x="62" y="728">Retrieval + reasoning. Verifies outputs, refreshes memory, adapts for future queries.</text>

  <!-- ─── BOTTOM COMPARISON PILLS ─── -->
  <rect x="58" y="752" width="184" height="22" rx="11" fill="#534AB7"/>
  <text font-family="-apple-system, sans-serif" font-size="11" font-weight="500" fill="#fff" x="150" y="763" text-anchor="middle" dominant-baseline="central">Gives answers</text>

  <rect x="250" y="752" width="184" height="22" rx="11" fill="#0F6E56"/>
  <text font-family="-apple-system, sans-serif" font-size="11" font-weight="500" fill="#fff" x="342" y="763" text-anchor="middle" dominant-baseline="central">Solves problems</text>

  <rect x="442" y="752" width="218" height="22" rx="11" fill="#185FA5"/>
  <text font-family="-apple-system, sans-serif" font-size="11" font-weight="500" fill="#fff" x="551" y="763" text-anchor="middle" dominant-baseline="central">Solves with context</text>
</svg>
